<svg xmlns="http://www.w3.org/2000/svg" viewBox="0 0 800 450" preserveAspectRatio="xMidYMid slice"><defs><linearGradient id="g25" x1="0" y1="0" x2="0" y2="1"><stop offset="0%" stop-color="#2a3348"/><stop offset="100%" stop-color="#1a2130"/></linearGradient></defs><rect width="800" height="450" fill="url(#g25)"/><circle cx="660" cy="110" r="180" fill="#3a4a68" opacity=".25"/><g fill="none" stroke-linecap="round" stroke-width="6"><path d="M70,260 C160,260 180,180 290,180 C400,180 420,260 530,260 C620,260 660,220 740,220" stroke="#4a9a5f"/><path d="M180,260 C280,260 300,120 400,120 C500,120 520,180 620,180" stroke="#5a9ae8"/><path d="M530,260 C590,260 610,320 700,320" stroke="#f2b544"/></g><g stroke-width="0"><circle cx="70" cy="260" r="20" fill="#141a28"/><circle cx="70" cy="260" r="12" fill="#7adf8f"/><circle cx="180" cy="260" r="20" fill="#141a28"/><circle cx="180" cy="260" r="12" fill="#7adf8f"/><circle cx="290" cy="180" r="20" fill="#141a28"/><circle cx="290" cy="180" r="12" fill="#7adf8f"/><circle cx="400" cy="120" r="20" fill="#141a28"/><circle cx="400" cy="120" r="12" fill="#8fc4ff"/><circle cx="530" cy="260" r="20" fill="#141a28"/><circle cx="530" cy="260" r="12" fill="#7adf8f"/><circle cx="400" cy="180" r="20" fill="#141a28"/><circle cx="400" cy="180" r="12" fill="#8fc4ff"/><circle cx="620" cy="180" r="20" fill="#141a28"/><circle cx="620" cy="180" r="12" fill="#8fc4ff"/><circle cx="740" cy="220" r="20" fill="#141a28"/><circle cx="740" cy="220" r="12" fill="#7adf8f"/><circle cx="700" cy="320" r="20" fill="#141a28"/><circle cx="700" cy="320" r="12" fill="#ffd75e"/></g><g font-family="Consolas,monospace" font-size="18"><rect x="620" y="238" width="92" height="34" rx="17" fill="#2e5a3a"/><text x="666" y="261" text-anchor="middle" fill="#b8f8c8">main</text><rect x="560" y="96" width="92" height="34" rx="17" fill="#2a4a72"/><text x="606" y="119" text-anchor="middle" fill="#bfe0ff">feature</text></g></svg>